<svg width="329" height="68" viewBox="0 0 329 68" fill="none" xmlns="http://www.w3.org/2000/svg">
<path d="M322.935 6.45827C319.417 2.93122 314.639 0.952338 309.658 0.959983C309.198 0.959968 308.72 0.959968 308.269 1.01626C304.456 1.32804 300.878 2.99177 298.183 5.70766L293.247 10.6054L284.484 19.322C282.778 21.0056 280.035 21.0056 278.329 19.322L269.809 10.8776L264.658 5.75455C261.663 2.74001 257.602 1.02459 253.352 0.978751L253.258 0.978736C242.894 0.978751 234.493 9.38038 234.493 19.7443V36.333C234.493 41.8031 234.652 47.1701 234.896 52.4057C236.319 59.1438 241.319 64.5611 247.921 66.5191C254.524 68.4771 261.668 66.6613 266.535 61.7884C267.29 61.0345 267.98 60.2185 268.599 59.3489C269.932 57.467 270.905 55.3547 271.47 53.1187C271.555 52.7528 271.639 52.3775 271.714 52.0022C262.311 49.2573 254.366 42.9204 249.599 34.3626C248.07 31.6342 249.043 28.1833 251.771 26.6546C254.499 25.126 257.95 26.0985 259.479 28.8268C262.475 34.1995 267.274 38.3403 273.028 40.5177C274.247 40.9695 275.503 41.3179 276.781 41.5592C277.419 41.6811 278.066 41.7844 278.723 41.85C281.233 42.0714 283.761 41.926 286.229 41.4184C288.552 40.8958 290.791 40.0526 292.882 38.9132C294.191 38.186 295.445 37.3644 296.635 36.4549C297.01 36.1547 297.31 35.9014 297.498 35.7418L292.994 31.1912C292.578 30.7641 292.417 30.1505 292.569 29.5742C292.721 28.9979 293.163 28.5434 293.735 28.3764L304.347 25.3082L305.07 25.1018L306.571 24.689L315.016 22.3245C315.595 22.1621 316.216 22.3181 316.65 22.7346C317.084 23.1511 317.265 23.766 317.127 24.3512L314.471 35.4791L311.854 46.4663C311.703 47.0493 311.256 47.5092 310.677 47.6751C310.098 47.841 309.475 47.6881 309.039 47.2732L305.567 43.7735C305.06 44.2332 304.535 44.7118 303.991 45.1058L303.409 45.575C302.583 46.213 301.72 46.8229 300.838 47.3952C297.858 49.315 294.62 50.7999 291.221 51.8051C291.517 53.4529 292.035 55.053 292.76 56.5622C293.088 57.2284 296.513 63.9933 304.085 66.386C309.788 68.1797 316.006 67.148 320.824 63.6081C325.643 60.0683 328.486 54.444 328.48 48.4649L328.48 19.7349C328.476 14.7469 326.48 9.96712 322.935 6.45827Z" fill="#007BF8"/>
<path d="M19.5337 38.8662C19.5616 40.3918 19.3945 41.9147 19.0364 43.398C18.7503 44.5591 18.0911 45.5941 17.1598 46.3442C15.9801 47.1456 14.5674 47.5318 13.144 47.4421C11.7147 47.5357 10.2967 47.1349 9.12817 46.3067C8.19702 45.5447 7.53851 44.5009 7.2517 43.3324C6.89813 41.8835 6.73419 40.3949 6.76367 38.9037L6.76373 30.8533H0.195795V41.7279C0.126154 43.9651 0.654047 46.1804 1.72521 48.1457C2.74945 49.9123 4.30151 51.3134 6.1632 52.1521C8.3554 53.1128 10.7326 53.5773 13.1252 53.5126C17.3412 53.5126 20.5626 52.4993 22.7894 50.4727C25.0162 48.4459 26.1265 45.4779 26.1202 41.5684V25.0078H19.5524L19.5337 38.8662Z" fill="white"/>
<path d="M11.718 21.9115C12.2013 22.2049 12.757 22.3576 13.3224 22.3525C13.882 22.3586 14.4319 22.2057 14.9081 21.9115C15.3857 21.6294 15.7855 21.2327 16.0715 20.7574C16.3481 20.2982 16.497 19.7734 16.5031 19.2374C16.5051 18.6558 16.3565 18.0837 16.0717 17.5767C15.7956 17.0789 15.3945 16.6617 14.9081 16.3662C14.4294 16.0791 13.8806 15.9297 13.3223 15.9347C12.7583 15.9307 12.2039 16.0798 11.718 16.3663C10.7106 16.9722 10.0945 18.0619 10.0947 19.2374C10.0999 19.7748 10.2523 20.3006 10.5358 20.7574C10.8263 21.2355 11.233 21.6325 11.718 21.9115Z" fill="white"/>
<path d="M33.317 27.0627C32.0159 28.4326 31.3622 30.4686 31.356 33.1709V44.2237H43.957C43.9776 44.9102 43.9178 45.5967 43.7787 46.2692C43.6937 46.6815 43.4189 47.0293 43.0375 47.2074C42.4547 47.417 41.8355 47.5063 41.2172 47.4702H34.5836V53.5408H41.5457C43.5682 53.6727 45.585 53.206 47.3442 52.1991C48.6318 51.3414 49.5574 50.0382 49.9432 48.5398C50.4051 46.5571 50.6071 44.5228 50.5437 42.4879V25.036H39.3688C36.6353 25.0172 34.618 25.6928 33.317 27.0627ZM43.9945 31.0972V38.1343H37.877V33.8464C37.7934 33.0578 38.0731 32.2741 38.637 31.7165C39.3933 31.2359 40.2871 31.0182 41.1797 31.0972L43.9945 31.0972Z" fill="white"/>
<path d="M59.3917 20.6824C60.3738 21.2703 61.5997 21.2703 62.5818 20.6824C63.0592 20.3989 63.4563 19.9985 63.7359 19.5189C64.0191 19.0626 64.1687 18.536 64.1676 17.9989C64.1738 17.4168 64.0248 16.8435 63.7359 16.3382C63.4658 15.8417 63.0672 15.4269 62.5818 15.1372C61.5997 14.5493 60.3738 14.5493 59.3917 15.1372C58.8975 15.428 58.4869 15.8417 58.2 16.3382C57.9111 16.8435 57.762 17.4168 57.7684 17.9989C57.7672 18.536 57.9168 19.0626 58.2 19.5189C58.4964 19.9982 58.9055 20.3976 59.3917 20.6824Z" fill="white"/>
<path d="M80.803 25.0078H74.3383V38.1437H64.7116V25.0078H58.1437V44.0736C58.1598 44.8694 57.9341 45.6513 57.4962 46.3161C57.0096 46.9716 56.2171 47.327 55.4039 47.2544H53.2646V53.5127H56.0794C59.0006 53.5127 61.1711 52.687 62.5911 51.0356C64.1076 49.1022 64.8531 46.6751 64.6835 44.2238L80.7748 44.2237L80.803 25.0078Z" fill="white"/>
<path d="M73.3157 47.0293C72.3336 46.4414 71.1076 46.4414 70.1255 47.0293C69.6349 47.3134 69.2273 47.721 68.9432 48.2115C68.6465 48.7003 68.4936 49.2629 68.5023 49.8347C68.5024 50.3847 68.6551 50.9238 68.9432 51.3923C69.2326 51.8787 69.639 52.285 70.1255 52.5745C70.6076 52.862 71.1594 53.0113 71.7206 53.0061C72.2788 53.0111 72.8276 52.8617 73.3063 52.5745C73.7792 52.2846 74.1727 51.8816 74.4508 51.4017C74.7356 50.9288 74.885 50.3868 74.8826 49.8347C74.8887 49.2657 74.7429 48.7054 74.4602 48.2115C74.1932 47.7209 73.7974 47.3121 73.3157 47.0293Z" fill="white"/>
<path d="M80.8595 47.0295C80.3898 46.7363 79.8462 46.5833 79.2926 46.5885C78.1123 46.5891 77.0174 47.2041 76.4027 48.2117C76.1027 48.6996 75.9466 49.2622 75.9523 49.8349C75.952 50.3892 76.1081 50.9323 76.4026 51.4019C76.7041 51.8892 77.1237 52.2926 77.6224 52.5747C78.1321 52.8615 78.7078 53.0103 79.2926 53.0063C79.8357 53.0085 80.3686 52.859 80.8313 52.5747C81.3034 52.2795 81.6962 51.8737 81.976 51.3925C82.2598 50.9221 82.4121 50.3842 82.417 49.8349C82.4244 49.2645 82.2751 48.7031 81.9853 48.2117C81.7179 47.7274 81.3301 47.3202 80.8595 47.0295Z" fill="white"/>
<path d="M110.969 20.6825C111.451 20.9702 112.002 21.1225 112.564 21.1235C113.126 21.1254 113.678 20.9728 114.159 20.6825C114.637 20.3968 115.037 19.9971 115.322 19.5191C115.598 19.06 115.744 18.5346 115.745 17.999C115.75 17.4182 115.604 16.8461 115.322 16.3383C115.046 15.8433 114.645 15.4292 114.159 15.1373C113.678 14.847 113.126 14.6944 112.564 14.6963C112.002 14.6973 111.451 14.8496 110.969 15.1373C110.475 15.4259 110.067 15.8403 109.786 16.3383C109.495 16.8429 109.342 17.4162 109.346 17.9991C109.348 18.5369 109.5 19.0635 109.786 19.519C110.076 20.0001 110.483 20.4003 110.969 20.6825Z" fill="white"/>
<path d="M132.277 47.0295C131.801 46.7353 131.251 46.5824 130.691 46.5886C130.126 46.5834 129.57 46.7362 129.087 47.0295C128.596 47.3137 128.189 47.7212 127.905 48.2118C127.612 48.7024 127.46 49.2638 127.464 49.835C127.469 50.3843 127.621 50.9222 127.905 51.3926C128.194 51.879 128.6 52.2854 129.087 52.5748C129.573 52.8613 130.127 53.0105 130.691 53.0064C131.247 53.0125 131.793 52.863 132.268 52.5748C132.741 52.2826 133.137 51.8801 133.422 51.402C133.702 50.9272 133.851 50.3864 133.853 49.835C133.864 48.6836 133.264 47.6125 132.277 47.0202V47.0295Z" fill="white"/>
<path d="M139.821 47.0292C139.356 46.7329 138.814 46.5795 138.263 46.5882C137.677 46.5817 137.1 46.7341 136.593 47.0293C136.087 47.3089 135.663 47.7165 135.364 48.2114C135.064 48.6993 134.908 49.262 134.913 49.8347C134.913 50.389 135.069 50.932 135.364 51.4016C135.669 51.8893 136.091 52.2926 136.593 52.5744C137.102 52.8625 137.678 53.0114 138.263 53.0061C138.806 53.0082 139.339 52.8587 139.802 52.5745C140.279 52.279 140.678 51.8736 140.965 51.3922C141.249 50.9219 141.401 50.384 141.406 49.8347C141.409 49.2648 141.26 48.7046 140.975 48.2114C140.699 47.7244 140.301 47.3172 139.821 47.0292Z" fill="white"/>
<path d="M146.464 38.1346H138.019V24.9988H131.517V38.1346H122.472V24.9988H111.269C108.536 24.9988 106.518 25.6837 105.217 27.0536C103.916 28.4235 103.262 30.4595 103.256 33.1618V38.1253H96.6882V24.9894H90.1202V44.0739C90.1365 44.8697 89.9107 45.6517 89.4729 46.3164C88.9862 46.972 88.1937 47.3274 87.3806 47.2547H85.26V53.513H88.0748C90.9897 53.513 93.1603 52.6873 94.5865 51.0359C96.0989 49.1005 96.8441 46.6749 96.6789 44.224H152.975V15.6348H146.407L146.464 38.1346ZM115.857 38.1346H109.74V33.8467C109.66 33.0568 109.943 32.2734 110.509 31.7168C111.259 31.2376 112.146 31.0199 113.033 31.0976H115.848L115.857 38.1346Z" fill="white"/>
<path d="M172.867 20.7106C173.345 21.0079 173.898 21.164 174.462 21.161C175.022 21.1637 175.572 21.0076 176.047 20.7106C176.521 20.4172 176.914 20.011 177.192 19.5283C177.474 19.0681 177.624 18.5388 177.624 17.999C177.625 17.4288 177.483 16.8674 177.211 16.3663C176.935 15.8764 176.538 15.466 176.057 15.1747C175.075 14.5869 173.849 14.5869 172.867 15.1747C172.378 15.4652 171.971 15.8752 171.684 16.3663C171.391 16.8601 171.239 17.4247 171.244 17.999C171.24 18.5406 171.393 19.0716 171.684 19.5284C171.974 20.0148 172.38 20.4212 172.867 20.7106Z" fill="white"/>
<path d="M180.373 20.7107C180.879 21.0087 181.456 21.1643 182.043 21.1611C182.588 21.1601 183.122 21.0039 183.582 20.7107C184.056 20.415 184.452 20.0095 184.736 19.5285C185.027 19.0717 185.18 18.5407 185.177 17.9991C185.181 17.4262 185.032 16.8626 184.745 16.3665C184.47 15.8766 184.072 15.4661 183.591 15.1749C183.125 14.8889 182.59 14.7363 182.043 14.7339C180.857 14.7295 179.755 15.3497 179.144 16.3665C178.848 16.8594 178.692 17.424 178.693 17.9991C178.696 18.5426 178.855 19.0738 179.153 19.5285C179.459 20.0146 179.878 20.4201 180.373 20.7107Z" fill="white"/>
<path d="M191.52 47.0292C190.537 46.4414 189.312 46.4414 188.329 47.0293C187.839 47.3134 187.431 47.721 187.147 48.2115C186.855 48.7021 186.702 49.2635 186.706 49.8347C186.711 50.384 186.863 50.9219 187.147 51.3922C187.437 51.8787 187.843 52.285 188.329 52.5745C188.812 52.8607 189.364 53.0099 189.925 53.0061C190.483 53.0125 191.032 52.8631 191.51 52.5745C191.983 52.2846 192.377 51.8816 192.655 51.4017C192.94 50.9288 193.089 50.3867 193.087 49.8347C193.092 49.2671 192.949 48.7078 192.674 48.2115C192.4 47.7223 192.002 47.3144 191.52 47.0292Z" fill="white"/>
<path d="M199.063 47.0295C198.597 46.7366 198.057 46.5836 197.506 46.5885C196.322 46.5858 195.223 47.2012 194.607 48.2117C194.306 48.6995 194.15 49.2622 194.156 49.8349C194.156 50.3892 194.312 50.9323 194.606 51.4019C194.908 51.8892 195.328 52.2926 195.826 52.5747C196.339 52.8627 196.918 53.0115 197.506 53.0063C198.049 53.0075 198.581 52.8581 199.045 52.5747C199.519 52.2789 199.914 51.8735 200.199 51.3924C200.487 50.924 200.64 50.3849 200.64 49.8349C200.646 49.2659 200.5 48.7056 200.217 48.2117C199.938 47.7267 199.541 47.3201 199.063 47.0295Z" fill="white"/>
<path d="M221.704 27.063C220.403 25.6931 218.382 25.0081 215.643 25.0081H204.449V38.144H197.253V25.0081H190.741V38.144H180.973V25.0081H174.462V38.144H167.809C166.973 38.2272 166.136 37.9928 165.464 37.4872C164.957 36.8522 164.717 36.0441 164.798 35.2354L164.798 15.6348H158.23V35.226C158.146 37.0511 158.494 38.8703 159.243 40.5366C159.907 41.8313 161.026 42.8342 162.386 43.3515C164.192 43.9909 166.102 44.2838 168.016 44.2147H223.656V33.1711C223.656 30.4689 223.005 28.4329 221.704 27.063ZM217.135 38.1346H210.998V31.0976H213.813C214.697 31.0206 215.581 31.2383 216.328 31.7168C216.899 32.2703 217.182 33.0561 217.097 33.8467L217.135 38.1346Z" fill="white"/>
</svg>
