<svg width="72" height="52" viewBox="0 0 72 52" fill="none" xmlns="http://www.w3.org/2000/svg">
<path d="M67.5351 4.90652C64.8507 2.21249 61.2016 0.70211 57.3984 0.710995C57.0413 0.710995 56.6843 0.710995 56.3371 0.710995C53.4052 0.9496 50.658 2.23868 48.6007 4.34117L44.8714 8.09036L38.1764 14.7358C36.874 16.0241 34.7773 16.0241 33.475 14.7358L26.9685 8.2689L23.001 4.30149C20.7142 2.00213 17.6147 0.694626 14.3719 0.661407H14.3025C6.38544 0.683289 -0.0164211 7.11622 3.16418e-05 15.0333L2.78271e-05 27.7092C2.78271e-05 31.8948 0.105825 35.9878 0.317422 39.9883C1.40865 45.1318 5.23054 49.2639 10.2735 50.7524C15.3165 52.2408 20.7696 50.8463 24.4789 47.1197C25.0565 46.5502 25.581 45.9294 26.046 45.2649C27.0692 43.8284 27.8159 42.2139 28.2479 40.504C28.3074 40.2263 28.3769 39.9387 28.4364 39.651C21.2689 37.5426 15.2147 32.7063 11.5749 26.1817C10.9549 25.0711 10.854 23.7442 11.2989 22.5526C11.7438 21.361 12.6897 20.425 13.8859 19.9926C14.3473 19.8269 14.834 19.743 15.3241 19.7446C16.8857 19.7641 18.3184 20.6146 19.0832 21.9763C21.369 26.0803 25.0338 29.2426 29.4282 30.9029C30.3546 31.2424 31.3065 31.5078 32.2748 31.6964C32.7608 31.7857 33.2667 31.865 33.7527 31.9146C35.6825 32.089 37.6275 31.9787 39.5253 31.5873C41.3084 31.1794 43.0272 30.5286 44.6333 29.6532C45.6245 29.0951 46.5757 28.4687 47.4799 27.7786L48.1445 27.2331L44.6333 23.7517C44.3108 23.4254 44.1843 22.9534 44.3003 22.5096C44.4164 22.0658 44.7578 21.7161 45.1987 21.5894L53.3219 19.3082L53.8773 19.1495L55.018 18.8321L61.4948 17.017C61.9373 16.8926 62.4127 17.0113 62.7448 17.3292C63.0769 17.647 63.2164 18.1167 63.1115 18.5643L61.1278 27.0645L59.1441 35.4456C59.0341 35.9028 58.6858 36.2649 58.2332 36.3924C57.7806 36.5199 57.2945 36.393 56.962 36.0605L54.3138 33.3925C53.917 33.7396 53.5203 34.0868 53.1037 34.3843L52.6574 34.7315C51.9961 35.2274 51.3349 35.6936 50.6737 36.13C48.3989 37.5932 45.9276 38.7253 43.334 39.4924C43.559 40.754 43.9562 41.9788 44.5143 43.1324C46.3148 46.6559 49.4116 49.3438 53.1533 50.6308C54.5425 51.0694 55.9912 51.2902 57.448 51.2854C65.3644 51.2745 71.7792 44.8597 71.7902 36.9433V15.0333C71.7774 11.2257 70.2458 7.58057 67.5351 4.90652Z" fill="#007BF8"/>
</svg>
