<svg width="329" height="67" viewBox="0 0 329 67" fill="none" xmlns="http://www.w3.org/2000/svg">
<path d="M323.455 5.51322C319.938 1.98617 315.159 0.00728525 310.178 0.0149299C309.718 0.0149146 309.24 0.0149146 308.79 0.0712043C304.976 0.382987 301.399 2.04671 298.703 4.76261L293.768 9.66036L285.004 18.377C283.298 20.0606 280.555 20.0606 278.849 18.377L270.33 9.9325L265.178 4.8095C262.183 1.79496 258.122 0.0795356 253.872 0.0336982L253.779 0.033683C243.415 0.0336982 235.013 8.43533 235.013 18.7992V35.3879C235.013 40.8581 235.172 46.225 235.416 51.4606C236.84 58.1987 241.839 63.616 248.442 65.574C255.044 67.5321 262.189 65.7162 267.055 60.8434C267.81 60.0895 268.501 59.2734 269.119 58.4038C270.452 56.5219 271.426 54.4097 271.99 52.1737C272.075 51.8077 272.159 51.4324 272.234 51.0571C262.831 48.3122 254.886 41.9753 250.119 33.4175C248.59 30.6892 249.563 27.2383 252.291 25.7096C255.02 24.1809 258.471 25.1535 259.999 27.8818C262.996 33.2545 267.794 37.3953 273.548 39.5726C274.768 40.0245 276.023 40.3728 277.301 40.6141C277.939 40.7361 278.586 40.8393 279.243 40.905C281.753 41.1263 284.282 40.9809 286.75 40.4733C289.072 39.9507 291.311 39.1076 293.402 37.9682C294.711 37.2409 295.965 36.4193 297.155 35.5098C297.53 35.2096 297.831 34.9563 298.018 34.7968L293.514 30.2462C293.099 29.8191 292.937 29.2054 293.089 28.6291C293.241 28.0528 293.684 27.5983 294.256 27.4313L304.868 24.3632L305.59 24.1568L307.091 23.7439L315.536 21.3795C316.115 21.2171 316.737 21.3731 317.17 21.7896C317.604 22.206 317.785 22.8209 317.647 23.4061L314.992 34.5341L312.374 45.5213C312.224 46.1043 311.776 46.5642 311.197 46.73C310.618 46.8959 309.995 46.743 309.559 46.3282L306.087 42.8284C305.581 43.2882 305.055 43.7667 304.511 44.1608L303.929 44.6299C303.104 45.2679 302.24 45.8778 301.358 46.4502C298.379 48.3699 295.14 49.8548 291.741 50.8601C292.038 52.5078 292.555 54.1079 293.28 55.6171C293.608 56.2833 297.033 63.0483 304.605 65.4409C310.309 67.2347 316.526 66.203 321.344 62.6631C326.163 59.1232 329.006 53.499 329 47.5198L329 18.7898C328.996 13.8019 327 9.02207 323.455 5.51322Z" fill="#007BF8"/>
<path d="M20.054 37.9213C20.0819 39.4469 19.9147 40.9698 19.5567 42.4531C19.2706 43.6142 18.6113 44.6492 17.6801 45.3993C16.5004 46.2007 15.0876 46.5869 13.6642 46.4972C12.235 46.5908 10.817 46.19 9.64843 45.3618C8.71728 44.5998 8.05877 43.556 7.77197 42.3875C7.41839 40.9386 7.25445 39.45 7.28393 37.9588L7.28399 29.9084H0.716059V40.783C0.646418 43.0202 1.17431 45.2355 2.24548 47.2008C3.26971 48.9674 4.82177 50.3685 6.68347 51.2072C8.87567 52.1679 11.2529 52.6324 13.6454 52.5677C17.8614 52.5677 21.0828 51.5544 23.3097 49.5278C25.5365 47.501 26.6468 44.533 26.6405 40.6235V24.0629H20.0726L20.054 37.9213Z" fill="#1B1C20"/>
<path d="M12.2382 20.9666C12.7216 21.26 13.2772 21.4127 13.8427 21.4076C14.4023 21.4137 14.9522 21.2608 15.4284 20.9666C15.9059 20.6845 16.3058 20.2878 16.5918 19.8125C16.8683 19.3533 17.0173 18.8285 17.0234 18.2925C17.0254 17.7109 16.8768 17.1388 16.5919 16.6318C16.3159 16.134 15.9148 15.7168 15.4284 15.4214C14.9496 15.1342 14.4009 14.9849 13.8426 14.9898C13.2786 14.9858 12.7241 15.1349 12.2382 15.4214C11.2309 16.0273 10.6147 17.117 10.615 18.2925C10.6201 18.83 10.7726 19.3557 11.056 19.8125C11.3466 20.2906 11.7532 20.6876 12.2382 20.9666Z" fill="#1B1C20"/>
<path d="M33.8372 26.1177C32.5362 27.4876 31.8825 29.5237 31.8762 32.2259V43.2788H44.4772C44.4979 43.9652 44.4381 44.6517 44.299 45.3243C44.2139 45.7365 43.9391 46.0844 43.5577 46.2625C42.9749 46.472 42.3558 46.5614 41.7375 46.5252H35.1039V52.5959H42.0659C44.0885 52.7278 46.1052 52.2611 47.8644 51.2542C49.1521 50.3964 50.0776 49.0933 50.4634 47.5949C50.9254 45.6122 51.1273 43.5778 51.064 41.543V24.0911H39.8891C37.1556 24.0723 35.1383 24.7478 33.8372 26.1177ZM44.5148 30.1523V37.1893H38.3972V32.9015C38.3137 32.1129 38.5934 31.3291 39.1573 30.7716C39.9136 30.291 40.8074 30.0733 41.7 30.1523L44.5148 30.1523Z" fill="#1B1C20"/>
<path d="M59.9119 19.7375C60.8941 20.3254 62.12 20.3254 63.1021 19.7375C63.5794 19.4541 63.9766 19.0536 64.2562 18.574C64.5394 18.1177 64.6889 17.5911 64.6878 17.0541C64.6941 16.4719 64.5451 15.8987 64.2561 15.3933C63.986 14.8968 63.5874 14.482 63.1021 14.1923C62.12 13.6044 60.8941 13.6044 59.9119 14.1923C59.4177 14.4831 59.0072 14.8968 58.7203 15.3933C58.4313 15.8987 58.2823 16.4719 58.2886 17.054C58.2875 17.5911 58.4371 18.1177 58.7203 18.574C59.0167 19.0533 59.4257 19.4527 59.9119 19.7375Z" fill="#1B1C20"/>
<path d="M81.3233 24.0629H74.8585V37.1988H65.2319V24.0629H58.6639V43.1287C58.6801 43.9245 58.4543 44.7064 58.0164 45.3712C57.5298 46.0267 56.7374 46.3821 55.9242 46.3095H53.7849V52.5678H56.5997C59.5209 52.5678 61.6914 51.7421 63.1113 50.0907C64.6279 48.1573 65.3734 45.7302 65.2038 43.2789L81.2951 43.2788L81.3233 24.0629Z" fill="#1B1C20"/>
<path d="M73.8359 46.0842C72.8539 45.4964 71.6279 45.4964 70.6457 46.0843C70.1552 46.3684 69.7476 46.7759 69.4635 47.2665C69.1667 47.7553 69.0139 48.3179 69.0226 48.8897C69.0226 49.4397 69.1753 49.9788 69.4635 50.4472C69.7529 50.9337 70.1592 51.34 70.6457 51.6295C71.1279 51.917 71.6797 52.0663 72.2408 52.0611C72.7991 52.066 73.3478 51.9167 73.8265 51.6295C74.2995 51.3396 74.6929 50.9366 74.9711 50.4566C75.2559 49.9837 75.4053 49.4417 75.4029 48.8897C75.4089 48.3207 75.2632 47.7604 74.9805 47.2665C74.7134 46.7758 74.3177 46.3671 73.8359 46.0842Z" fill="#1B1C20"/>
<path d="M81.3797 46.0842C80.9101 45.7911 80.3665 45.6381 79.8128 45.6433C78.6325 45.6438 77.5377 46.2588 76.923 47.2665C76.623 47.7543 76.4668 48.317 76.4726 48.8897C76.4723 49.444 76.6283 49.987 76.9229 50.4567C77.2243 50.9439 77.644 51.3473 78.1427 51.6295C78.6524 51.9163 79.2281 52.065 79.8128 52.0611C80.3559 52.0632 80.8888 51.9138 81.3516 51.6295C81.8236 51.3343 82.2165 50.9285 82.4963 50.4472C82.7801 49.9768 82.9323 49.439 82.9372 48.8897C82.9447 48.3193 82.7954 47.7578 82.5056 47.2665C82.2381 46.7822 81.8504 46.375 81.3797 46.0842Z" fill="#1B1C20"/>
<path d="M111.489 19.7375C111.971 20.0252 112.522 20.1775 113.084 20.1785C113.646 20.1803 114.198 20.0278 114.679 19.7375C115.157 19.4518 115.557 19.0521 115.843 18.5741C116.119 18.115 116.264 17.5896 116.265 17.054C116.27 16.4732 116.125 15.901 115.843 15.3933C115.566 14.8983 115.165 14.4842 114.679 14.1923C114.198 13.902 113.646 13.7494 113.084 13.7513C112.522 13.7522 111.971 13.9046 111.489 14.1922C110.996 14.4809 110.588 14.8953 110.307 15.3933C110.015 15.8979 109.863 16.4711 109.866 17.0541C109.868 17.5919 110.021 18.1185 110.307 18.574C110.597 19.0551 111.003 19.4552 111.489 19.7375Z" fill="#1B1C20"/>
<path d="M132.797 46.0843C132.321 45.79 131.771 45.6371 131.212 45.6433C130.646 45.6381 130.091 45.7909 129.607 46.0842C129.117 46.3684 128.709 46.776 128.425 47.2665C128.132 47.7571 127.98 48.3185 127.984 48.8897C127.989 49.4391 128.141 49.9769 128.425 50.4473C128.714 50.9337 129.121 51.3401 129.607 51.6295C130.093 51.916 130.648 52.0652 131.212 52.0611C131.767 52.0672 132.313 51.9177 132.788 51.6295C133.261 51.3373 133.657 50.9348 133.942 50.4567C134.222 49.9819 134.371 49.4411 134.374 48.8897C134.385 47.7383 133.785 46.6673 132.797 46.0749V46.0843Z" fill="#1B1C20"/>
<path d="M140.341 46.0842C139.876 45.7879 139.335 45.6345 138.783 45.6433C138.197 45.6368 137.62 45.7891 137.113 46.0843C136.607 46.3639 136.183 46.7716 135.884 47.2665C135.584 47.7543 135.428 48.317 135.434 48.8897C135.434 49.444 135.589 49.987 135.884 50.4567C136.189 50.9443 136.612 51.3476 137.113 51.6295C137.622 51.9175 138.198 52.0664 138.783 52.0611C139.327 52.0632 139.859 51.9137 140.322 51.6295C140.799 51.334 141.198 50.9286 141.486 50.4473C141.769 49.9769 141.922 49.439 141.927 48.8897C141.929 48.3199 141.78 47.7596 141.495 47.2665C141.219 46.7795 140.821 46.3722 140.341 46.0842Z" fill="#1B1C20"/>
<path d="M146.984 37.1894H138.539V24.0536H132.037V37.1894H122.992V24.0536H111.789C109.056 24.0536 107.038 24.7385 105.737 26.1084C104.436 27.4782 103.783 29.5143 103.776 32.2166V37.1801H97.2084V24.0442H90.6404V43.1287C90.6567 43.9245 90.431 44.7065 89.9932 45.3712C89.5065 46.0268 88.714 46.3821 87.9008 46.3094H85.7803V52.5678H88.5951C91.51 52.5678 93.6805 51.7421 95.1068 50.0907C96.6192 48.1552 97.3643 45.7296 97.1992 43.2788H153.496V14.6895H146.928L146.984 37.1894ZM116.377 37.1894H110.26V32.9015C110.18 32.1116 110.463 31.3282 111.029 30.7716C111.779 30.2924 112.667 30.0747 113.553 30.1524H116.368L116.377 37.1894Z" fill="#1B1C20"/>
<path d="M173.387 19.7656C173.866 20.0629 174.419 20.219 174.982 20.216C175.543 20.2188 176.092 20.0626 176.568 19.7656C177.041 19.4722 177.434 19.066 177.712 18.5833C177.994 18.1232 178.144 17.5938 178.144 17.054C178.145 16.4838 178.003 15.9224 177.731 15.4214C177.455 14.9315 177.058 14.521 176.577 14.2298C175.595 13.642 174.369 13.642 173.387 14.2298C172.898 14.5202 172.491 14.9303 172.205 15.4214C171.911 15.9151 171.759 16.4798 171.764 17.054C171.761 17.5956 171.914 18.1267 172.205 18.5834C172.494 19.0698 172.901 19.4762 173.387 19.7656Z" fill="#1B1C20"/>
<path d="M180.893 19.7657C181.399 20.0636 181.976 20.2193 182.563 20.216C183.109 20.2151 183.642 20.0588 184.102 19.7657C184.576 19.4699 184.972 19.0644 185.256 18.5834C185.547 18.1267 185.7 17.5956 185.697 17.0541C185.701 16.4811 185.552 15.9175 185.266 15.4214C184.99 14.9315 184.592 14.5211 184.111 14.2298C183.646 13.9438 183.11 13.7913 182.563 13.7889C181.377 13.7845 180.276 14.4046 179.664 15.4215C179.368 15.9143 179.212 16.4789 179.214 17.054C179.216 17.5975 179.376 18.1288 179.673 18.5834C179.979 19.0696 180.398 19.475 180.893 19.7657Z" fill="#1B1C20"/>
<path d="M192.04 46.0842C191.058 45.4964 189.832 45.4964 188.85 46.0843C188.359 46.3684 187.952 46.776 187.668 47.2665C187.375 47.7571 187.222 48.3185 187.227 48.8897C187.232 49.439 187.384 49.9768 187.668 50.4472C187.957 50.9337 188.363 51.34 188.85 51.6295C189.332 51.9157 189.884 52.0649 190.445 52.0611C191.003 52.0675 191.552 51.9181 192.031 51.6295C192.504 51.3396 192.897 50.9366 193.175 50.4567C193.46 49.9837 193.609 49.4417 193.607 48.8897C193.612 48.3221 193.47 47.7628 193.194 47.2665C192.92 46.7773 192.522 46.3694 192.04 46.0842Z" fill="#1B1C20"/>
<path d="M199.584 46.0842C199.117 45.7914 198.577 45.6384 198.026 45.6433C196.843 45.6406 195.743 46.256 195.127 47.2665C194.827 47.7543 194.671 48.317 194.676 48.8897C194.676 49.444 194.832 49.9871 195.127 50.4567C195.428 50.944 195.848 51.3474 196.347 51.6295C196.859 51.9175 197.438 52.0663 198.026 52.0611C198.569 52.0623 199.102 51.9128 199.565 51.6295C200.039 51.3337 200.435 50.9282 200.719 50.4472C201.007 49.9788 201.16 49.4397 201.16 48.8897C201.166 48.3206 201.02 47.7604 200.738 47.2665C200.459 46.7815 200.062 46.3748 199.584 46.0842Z" fill="#1B1C20"/>
<path d="M222.224 26.1177C220.923 24.7479 218.903 24.0629 216.163 24.0629H204.97V37.1988H197.773V24.0629H191.261V37.1988H181.494V24.0629H174.982V37.1988H168.33C167.493 37.282 166.656 37.0475 165.984 36.542C165.477 35.907 165.238 35.0989 165.318 34.2902L165.318 14.6895H158.75V34.2808C158.667 36.1059 159.014 37.9251 159.763 39.5914C160.427 40.8861 161.547 41.8889 162.906 42.4063C164.712 43.0457 166.622 43.3386 168.536 43.2695H224.176V32.2259C224.176 29.5237 223.525 27.4876 222.224 26.1177ZM217.655 37.1894H211.519V30.1523H214.333C215.217 30.0754 216.101 30.2931 216.848 30.7716C217.419 31.3251 217.703 32.1109 217.617 32.9015L217.655 37.1894Z" fill="#1B1C20"/>
</svg>
