<svg id="metalogo-fr" xmlns="http://www.w3.org/2000/svg" width="316.4" height="50.677" viewBox="0 0 316.4 50.677">
  <path id="Path_341" data-name="Path 341" d="M114.535,47.755a14.263,14.263,0,0,0-10.137-4.2h-1.061A12.21,12.21,0,0,0,95.6,47.19l-3.729,3.749-6.695,6.645a3.343,3.343,0,0,1-4.7,0l-6.507-6.467L70,47.15a12.349,12.349,0,0,0-8.629-3.64H61.3A14.342,14.342,0,0,0,47,57.882V70.558q0,6.278.317,12.279a14.322,14.322,0,0,0,24.161,7.131,13.371,13.371,0,0,0,1.567-1.855,14.2,14.2,0,0,0,2.2-4.761c.059-.278.129-.565.188-.853A28.526,28.526,0,0,1,58.575,69.03a4.334,4.334,0,0,1,2.311-6.189,4.215,4.215,0,0,1,1.438-.248,4.374,4.374,0,0,1,3.759,2.232,19.887,19.887,0,0,0,10.345,8.927,18.614,18.614,0,0,0,2.847.793c.486.089.992.169,1.478.218a19.767,19.767,0,0,0,5.773-.327A19.986,19.986,0,0,0,91.633,72.5h0a24.518,24.518,0,0,0,2.847-1.875l.665-.546L91.633,66.6a1.3,1.3,0,0,1,.565-2.162l8.123-2.281.555-.159,1.141-.317,6.477-1.815a1.3,1.3,0,0,1,1.617,1.547l-1.984,8.5-1.984,8.381a1.3,1.3,0,0,1-2.182.615l-2.648-2.668c-.4.347-.793.694-1.21.992l-.446.347q-.992.744-1.984,1.4a28.517,28.517,0,0,1-7.34,3.362,14,14,0,0,0,1.18,3.64,15.284,15.284,0,0,0,8.639,7.5,14.114,14.114,0,0,0,4.295.655A14.362,14.362,0,0,0,118.79,79.792V57.882a14.293,14.293,0,0,0-4.255-10.127Z" transform="translate(-47 -43.51)" fill="#007bf8"/>
  <path id="Path_342" data-name="Path 342" d="M148.827,63.21a7.141,7.141,0,0,0-5.753,2.767,6.11,6.11,0,0,0-5.386-2.8,7.31,7.31,0,0,0-5.525,2.579l-.942-2.162h-3.5V81.053h5.009V71.631c0-2.728,1.359-4.285,3.62-4.285,1.8,0,2.738,1.23,2.738,3.561V81.053h4.89V71.631c0-2.728,1.329-4.285,3.561-4.285,1.815,0,2.787,1.23,2.787,3.561V81.053h5.009V70.143C155.333,66.046,152.645,63.21,148.827,63.21Z" transform="translate(-47.658 -43.67)" fill="#1b1c20"/>
  <path id="Path_343" data-name="Path 343" d="M168.571,62.64c-5.5,0-9.611,3.967-9.611,9.2s4.136,9.2,9.611,9.2a9.452,9.452,0,0,0,9.194-6.219H172.5a4.483,4.483,0,0,1-3.967,1.984A4.245,4.245,0,0,1,164,73.124h14.035a10.847,10.847,0,0,0,.089-1.379h0C178.162,66.766,174.264,62.64,168.571,62.64Zm-4.4,7.3a4.315,4.315,0,0,1,4.4-3.283,4.523,4.523,0,0,1,4.582,3.283Z" transform="translate(-47.912 -43.666)" fill="#1b1c20"/>
  <path id="Path_344" data-name="Path 344" d="M187.831,74.176V67.382h5.058V63.593h-5.118V59.05h-.992l-7.32,7.31v.992H182.8v7.419c0,3.858,2.509,6.219,6.586,6.219h3.561V76.854h-2.281A2.514,2.514,0,0,1,187.831,74.176Z" transform="translate(-48.08 -43.637)" fill="#1b1c20"/>
  <path id="Path_345" data-name="Path 345" d="M210.93,64.772a9.333,9.333,0,0,0-6.09-2.132c-5.574,0-9.72,3.967-9.72,9.175s4.146,9.234,9.72,9.234a9.383,9.383,0,0,0,6.03-2.083l.426,1.557h3.967V63.106h-3.8ZM205.247,76.6A4.791,4.791,0,1,1,208.8,75.29,4.781,4.781,0,0,1,205.247,76.6Z" transform="translate(-48.207 -43.666)" fill="#1b1c20"/>
  <rect id="Rectangle_95" data-name="Rectangle 95" width="5.009" height="23.705" transform="translate(171.808 13.688)" fill="#1b1c20"/>
  <rect id="Rectangle_96" data-name="Rectangle 96" width="4.989" height="4.384" transform="translate(181.638 13.261)" fill="#1b1c20"/>
  <rect id="Rectangle_97" data-name="Rectangle 97" width="5.009" height="17.427" transform="translate(181.628 19.966)" fill="#1b1c20"/>
  <path id="Path_346" data-name="Path 346" d="M200.709,31.744,196.176,20.08H190.83L198.378,37.5H203l7.36-17.417h-5.187Z" transform="translate(-1.565 -0.114)" fill="#1b1c20"/>
  <path id="Path_347" data-name="Path 347" d="M264.336,65.762l-.893-2.132H260.23V81.056h4.959V72c0-2.847,1.121-4.027,3.967-4.027h2.172V63.53h-1.646A6.507,6.507,0,0,0,264.336,65.762Z" transform="translate(-48.738 -43.673)" fill="#1b1c20"/>
  <path id="Path_348" data-name="Path 348" d="M288.49,64.772a9.373,9.373,0,0,0-6.09-2.132c-5.584,0-9.73,3.967-9.73,9.175s4.146,9.234,9.73,9.234a9.353,9.353,0,0,0,5.951-2.083l.436,1.557h3.967V63.106h-3.749ZM282.807,76.6a4.8,4.8,0,1,1,3.562-1.3A4.781,4.781,0,0,1,282.807,76.6Z" transform="translate(-48.839 -43.666)" fill="#1b1c20"/>
  <rect id="Rectangle_98" data-name="Rectangle 98" width="4.989" height="4.384" transform="translate(248.736 13.261)" fill="#1b1c20"/>
  <rect id="Rectangle_99" data-name="Rectangle 99" width="5.009" height="17.427" transform="translate(248.736 19.966)" fill="#1b1c20"/>
  <path id="Path_349" data-name="Path 349" d="M315.139,69.821c-1.924-.327-3.511-.6-3.511-1.756,0-.992.922-1.676,2.48-1.676,1.756,0,2.787.684,2.807,2.073h4.751c0-3.481-2.976-5.822-7.429-5.822s-7.459,2.271-7.459,5.574c0,4.106,3.769,4.85,6.735,5.306,1.984.317,3.561.674,3.561,1.865s-1.24,1.756-2.638,1.756c-1.8,0-3.055-.774-3.085-2.321h-4.88c0,3.729,3.124,6.229,7.776,6.229h0c4.682,0,7.776-2.321,7.776-5.872C322.022,70.932,318.164,70.327,315.139,69.821Z" transform="translate(-49.115 -43.666)" fill="#1b1c20"/>
  <path id="Path_350" data-name="Path 350" d="M334.638,62.64c-5.743,0-10.018,3.967-10.018,9.2s4.275,9.2,10.018,9.2,10.018-3.967,10.018-9.2S340.351,62.64,334.638,62.64Zm0,13.975a4.781,4.781,0,1,1,4.959-4.771,4.652,4.652,0,0,1-4.959,4.771Z" transform="translate(-49.262 -43.666)" fill="#1b1c20"/>
  <path id="Path_351" data-name="Path 351" d="M359,63.21a8.223,8.223,0,0,0-6.15,2.569l-.992-2.152H348.42V81.053h5.009V71.928c0-2.8,1.577-4.543,4.166-4.543,2.162,0,3.233,1.27,3.233,3.908v9.76h5.029V70.49C365.857,66.076,363.218,63.21,359,63.21Z" transform="translate(-49.456 -43.671)" fill="#1b1c20"/>
</svg>
